<svg width="1471" height="986" viewBox="0 0 1471 986" fill="none" xmlns="http://www.w3.org/2000/svg">
<g clip-path="url(#clip0_53_2)">
<path d="M841.909 421.449C834.297 420.332 826.895 416.673 823.651 412.422C818.481 405.651 816.914 394.776 819.678 384.873C821.477 378.428 825.843 373.303 831.991 370.424C834.841 369.089 836.048 368.878 840.821 368.88C847.295 368.881 849.669 369.589 853.6 372.693C857.182 375.523 859.087 378.728 860.691 384.624C861.795 388.68 861.975 391.173 862.206 405.649L862.469 422.073L853.828 422.002C849.074 421.963 843.712 421.715 841.909 421.449Z" fill="#F9F9F9" stroke="#F9F9F9"/>
<path d="M1108.92 674.823C1109.25 669.292 1109.51 668.951 1109.58 673.951C1109.62 676.429 1109.44 678.457 1109.18 678.457C1108.92 678.457 1108.8 676.822 1108.92 674.823Z" fill="#121D2C" stroke="#121D2C"/>
<path d="M977.826 502.346C978.009 502.051 978.939 501.639 983.382 500.451C983.382 501.038 979.59 502.884 978.382 502.884C977.894 502.884 977.644 502.643 977.826 502.346Z" fill="#1F2834" stroke="#1F2834"/>
<path d="M901.724 678.069C901.079 677.424 901.267 670.787 901.918 671.189C902.238 671.387 902.5 672.547 902.5 673.768C902.5 674.99 902.862 676.289 903.306 676.656C903.856 677.113 907.104 677.273 913.634 677.163L923.157 677.003L923.498 673.805L923.84 670.608L923.935 674.532L924.03 678.456H913.071C907.044 678.456 901.938 678.282 901.724 678.069Z" fill="#1F2834" stroke="#1F2834"/>
<path d="M835.829 308.561L836.457 304.928L836.637 307.761C836.828 310.759 836.525 312.195 835.701 312.195C835.427 312.195 835.484 310.56 835.829 308.561Z" fill="#1F2834" stroke="#1F2834"/>
<path d="M1237.06 578.995C1236.59 578.69 1231.69 578.479 1226.15 578.525C1220.62 578.573 1215.93 578.446 1215.73 578.245C1215.52 578.044 1220.64 577.88 1227.09 577.88C1234.04 577.88 1238.83 578.103 1238.83 578.428C1238.83 579.314 1237.96 579.589 1237.06 578.995Z" fill="#121D2C" stroke="#121D2C"/>
<path d="M482.5 324.451C480.418 306.723 468.632 290.223 452.435 282.36C443.582 278.063 438.869 277.043 427.975 277.069C419.543 277.087 418.181 277.237 413.545 278.661C395.752 284.121 382.489 296.942 376.755 314.23C375.466 318.116 374.151 320.872 374.151 319.688C374.151 318.548 377.997 308.395 379.766 304.869C387.086 290.267 402.154 279.394 419.231 276.392C425.214 275.34 430.117 275.355 436.857 276.448C448.66 278.359 458.299 283.058 466.592 290.941C477.001 300.836 482.771 312.762 483.704 326.318C484.088 331.91 483.218 330.559 482.5 324.451Z" fill="#F5F1EA" stroke="#F5F1EA"/>
<path d="M1184.13 421.484C1175.56 419.999 1167.81 414.326 1164.51 407.123C1161.41 400.364 1161.45 389.619 1164.6 382.739C1169.68 371.673 1184.23 365.758 1194.61 370.541C1197.93 372.073 1202.14 376.253 1203.77 379.633C1206.63 385.582 1206.99 388.264 1207.26 405.65L1207.51 422.073L1197.13 422.005C1191.42 421.967 1185.57 421.732 1184.13 421.484Z" fill="#F9F9F9" stroke="#F9F9F9"/>
<path d="M1090.16 560.823C1082.55 557.149 1079.58 549.02 1083.1 541.544C1084.75 538.06 1086.38 536.469 1089.9 534.913C1098.08 531.298 1107.22 534.048 1110.99 541.253C1112.46 544.071 1112.64 544.94 1112.46 548.576C1112.2 553.828 1110.09 557.54 1105.9 560.133C1103.4 561.677 1102.44 561.913 1098.06 562.06C1093.76 562.205 1092.66 562.034 1090.16 560.823Z" fill="#2E3445" stroke="#2E3445"/>
<path d="M965.46 501.686C961.383 499.651 959.389 497.539 957.253 492.999C953.974 486.022 955.817 477.243 961.641 472.123C968.218 466.338 979.157 466.413 986.112 472.291C987.133 473.155 988.77 475.462 989.749 477.419C991.236 480.393 991.528 481.66 991.528 485.141C991.528 487.431 991.112 490.526 990.602 492.02C989.521 495.19 984.782 500.772 983.568 500.306C983.12 500.135 982.307 500.253 981.759 500.567C981.212 500.882 980.028 501.399 979.129 501.719C978.229 502.039 977.655 502.562 977.854 502.882C978.084 503.251 976.539 503.464 973.618 503.464C969.655 503.464 968.529 503.219 965.46 501.686Z" fill="#2E3445" stroke="#2E3445"/>
<path d="M856.532 324.475C851.328 322.767 847.479 319.379 845.252 314.55C843.421 310.576 843.515 303.05 845.446 299.129C849.52 290.857 858.304 286.762 866.724 289.208C875.116 291.645 879.942 298.09 880.021 306.962C880.113 317.273 873.154 324.421 862.665 324.788C860.092 324.879 857.332 324.738 856.532 324.475Z" fill="#2E3445" stroke="#2E3445"/>
<path d="M814.345 325.035C809.556 323.707 805.001 320.191 803.015 316.29C801.69 313.69 800.581 309.745 801.298 310.188C801.601 310.375 801.835 309.099 801.835 307.253C801.835 305.456 801.601 304.131 801.314 304.308C800.6 304.748 801.423 301.319 802.653 298.73C804.329 295.203 807.508 292.001 811.014 290.312C813.767 288.987 815.116 288.711 818.776 288.72C825.434 288.739 830.445 291.271 833.779 296.3C836.508 300.417 836.94 302.681 835.97 307.807C835.412 310.764 835.345 312.212 835.763 312.351C836.702 312.664 834.111 317.55 831.678 320.053C830.509 321.256 828.185 322.865 826.515 323.629C823.213 325.139 817.221 325.831 814.345 325.035Z" fill="#2E3445" stroke="#2E3445"/>
<path d="M924.321 502.727C918.949 500.517 914.855 496.527 913.309 491.992C911.797 487.556 912.096 481.71 914.047 477.588C917.147 471.041 922.54 467.733 930.14 467.719C934.073 467.712 935.309 467.963 938.12 469.342C942.097 471.294 945.707 475.189 946.97 478.893C948.416 483.13 948.168 489.174 946.392 493C943.295 499.672 938.258 502.971 930.722 503.264C927.936 503.373 925.366 503.157 924.321 502.727Z" fill="#2E3445" stroke="#2E3445"/>
<path d="M1036.92 560.972C1025.5 555.81 1025.41 539.834 1036.77 534.71C1040.24 533.144 1047.16 533.027 1050.42 534.478C1057.48 537.612 1060.88 544.711 1058.79 551.918C1056.86 558.546 1051.58 562.177 1043.9 562.164C1040.77 562.158 1038.79 561.823 1036.92 560.972Z" fill="#2E3445" stroke="#2E3445"/>
<path d="M1012.56 497.318C1008.81 496.312 1008.4 496.083 1008.4 495.001C1008.4 493.89 1008.81 493.944 1010.5 495.272C1011.28 495.883 1013.22 496.56 1014.81 496.78C1016.41 497 1017.86 497.416 1018.04 497.706C1018.5 498.457 1016.19 498.292 1012.56 497.318Z" fill="#1F2834" stroke="#1F2834"/>
<path d="M801.058 310.062C800.447 309.452 800.607 304.745 801.253 304.346C801.615 304.123 801.835 305.212 801.835 307.219C801.835 310.487 801.76 310.763 801.058 310.062Z" fill="#1F2834" stroke="#1F2834"/>
<path d="M415.173 708.675C390.84 706.53 366.269 699.532 343.893 688.375C314.273 673.605 290.601 654.052 271.349 628.459C267.459 623.287 266.14 621.137 265.921 617.584C265.921 617.116 268.343 619 271.303 621.767C274.262 624.536 279.722 629.119 283.433 631.953C311.612 653.466 342.113 666.111 378.33 671.295C388.561 672.759 415.489 672.759 426.52 671.294C472.931 665.131 511.639 646.342 543.488 614.518C567.578 590.446 582.586 564.972 592.365 531.564C606.893 481.921 598.02 424.904 568.99 381.378C562.102 371.05 557.258 364.991 549.298 356.746C537.209 344.226 519.044 330.203 507.402 324.406C503.123 322.273 503.012 322.2 503.46 321.754C504.391 320.824 517.456 325.922 529.173 331.789C547.932 341.182 562.946 351.937 577.997 366.768C597.263 385.748 611.032 405.904 621.336 430.213C628.6 447.349 634.078 469.296 636.043 489.146C636.933 498.117 636.415 522.933 635.151 531.952C631.785 555.976 622.8 582.69 611.002 603.747C592.139 637.416 566.556 663.458 533.936 682.201C510.422 695.709 484.8 704.214 456.658 707.846C448.237 708.933 423.676 709.424 415.173 708.675Z" fill="#4E5266" stroke="#4E5266"/>
<path d="M412.812 643.845C397.328 642.065 380.187 637.554 364.986 631.26L360.767 629.513V601.726C360.767 579.054 360.934 573.064 361.671 569.187C363.498 559.556 368.46 548.2 374.165 540.588C382.928 528.897 397.721 518.966 411.853 515.285C419.417 513.316 431.986 512.797 439.613 514.139C463.89 518.413 483.979 535.495 492.457 559.072C495.568 567.723 495.764 570.293 495.764 602.294V631.813L494.164 632.863C493.283 633.44 492.1 633.879 490.603 634.61C490.226 634.378 488.287 634.727 486.295 635.387C474.012 639.458 461.304 642.372 449.214 643.888C441.064 644.91 421.884 644.888 412.812 643.845Z" fill="#CAA166" stroke="#CAA166"/>
<path d="M422.43 501.721C414.365 500.449 406.031 495.833 399.819 489.198C392.835 481.739 389.836 474.144 389.731 463.652C389.658 456.208 390.624 451.72 393.614 445.619C397.161 438.383 403.103 432.482 410.809 428.544C417.299 425.227 421.651 424.19 428.848 424.243C435.818 424.297 440.463 425.484 447.177 428.929C452.691 431.758 459.79 438.881 462.768 444.572C472.918 463.974 465.241 487.873 445.722 497.633C438.166 501.412 429.788 502.881 422.43 501.721Z" fill="#CAA166" stroke="#CAA166"/>
<path d="M381.715 658.611C348.355 655.198 315.375 642.121 290.993 622.642C249.745 589.687 226.944 540.081 230.367 490.747C231.594 473.072 234.494 458.261 240.001 441.549C256.672 390.965 291.547 352.479 341.39 329.664C345.614 327.73 349.281 326.151 349.536 326.157C350.098 326.169 346.159 328.627 343.282 330.061C342.146 330.627 341.164 331.286 341.1 331.526C340.967 332.02 340.883 332.529 340.77 333.522C340.729 333.901 337.55 336.623 333.71 339.569C325.199 346.102 308.612 362.611 302.506 370.627C280.826 399.084 268.581 430.752 265.303 466.839C264.524 475.403 264.841 493.349 265.917 501.721C268.147 519.056 273.793 537.187 281.489 551.719C286.424 561.037 286.183 561.015 285.843 552.127C285.61 546.026 285.765 543.353 286.559 539.747C291.163 518.846 305.735 504.272 326.618 499.68C333.536 498.16 344.855 498.683 351.457 500.829C357.26 502.716 360.911 504.485 365.713 507.73C369.348 510.188 377.642 518.242 377.642 519.316C377.642 519.655 374.947 522.703 371.652 526.087C358.328 539.781 350.847 555.795 349.186 574.187C348.305 583.931 347.796 621.242 348.526 622.603C349.269 623.993 362.721 630.534 371.401 633.725C392.362 641.431 410.578 644.742 431.958 644.733C447.859 644.726 460.804 642.824 477.306 638.067C482.177 636.664 487.316 635.101 488.727 634.597C493.529 632.879 491.781 634.147 483.729 638.224C459.582 650.449 440.599 656.092 414.966 658.667C407.934 659.373 388.849 659.34 381.715 658.611Z" fill="#4E5266" stroke="#4E5266"/>
<path d="M508.297 624.292C508.149 623.867 507.926 611.353 507.801 596.484C507.554 567.014 507.55 566.969 503.801 555.259C500.014 543.429 494.292 533.772 485.595 524.542L480.534 519.172L481.763 517.186C482.439 516.093 484.695 513.608 486.775 511.663C496.691 502.394 512.282 497.166 525.253 498.755C550.258 501.819 566.858 517.604 570.558 541.836C571.742 549.586 571.628 552.203 569.888 557.062C564.831 571.196 554.413 586.561 539.987 601.161C532.513 608.725 527.078 613.189 518.639 618.694C509.299 624.788 508.599 625.167 508.297 624.292Z" fill="#4E5266" stroke="#4E5266"/>
<path d="M329.687 489.442C321.974 487.636 314.587 481.56 310.972 474.053C309.09 470.142 308.772 468.865 308.529 464.244C308.063 455.339 310.475 448.195 315.834 442.61C330.469 427.361 355.409 432.328 362.807 451.966C369.723 470.324 355.69 490.277 336.037 490.028C333.797 490 330.939 489.736 329.687 489.442Z" fill="#4E5266" stroke="#4E5266"/>
<path d="M581.576 459.136C581.356 458.097 580.265 454.762 579.149 451.724C567.702 420.529 545.85 393.046 518.167 375.023C513.03 371.68 495.906 362.531 492.925 361.538C492.474 361.388 492.909 359.674 494.237 356.376C496.01 351.977 498.065 343.859 498.992 337.601C499.409 334.781 499.631 334.847 509.147 340.549C544.748 361.885 570.928 397.316 580.76 437.466C582.613 445.032 582.859 446.805 581.853 445.329C581.416 444.688 581.341 444.996 581.573 446.491C582.679 453.618 582.888 455.561 582.602 456.031C582.425 456.322 582.32 457.565 582.369 458.793C582.476 461.522 582.113 461.679 581.576 459.136Z" fill="#4E5266" stroke="#4E5266"/>
<path d="M494.455 632.708L495.764 631.806V604.727C495.764 587.792 495.969 577.855 496.312 578.2C496.634 578.523 496.934 589.617 497.04 604.97C497.231 632.887 497.255 632.614 494.435 633.296L493.146 633.609L494.455 632.708Z" fill="#F5F1EA" stroke="#F5F1EA"/>
<path d="M419.538 386.61C418.737 386.354 417.266 386.118 416.27 386.086C413.264 385.99 404.473 382.238 398.59 378.538C393.445 375.303 384.196 365.569 380.877 359.893C377.317 353.807 372.792 340.936 374.605 342.056C374.922 342.252 375.367 343.397 375.592 344.6C377.01 352.203 383.17 363.064 389.842 369.73C406.938 386.811 431.424 390.869 452.996 380.199C465.462 374.032 476.062 361.562 480.406 347.949C481.877 343.341 482.295 344.616 480.879 349.385C477.802 359.733 468.338 371.975 458.765 377.991C447.742 384.919 440.121 387.222 428.517 387.133C424.378 387.101 420.338 386.865 419.538 386.61Z" fill="#F5F1EA" stroke="#F5F1EA"/>
<path d="M439.322 500.438C449.649 496.024 454.885 492.441 458.901 487.041C468.438 474.219 469.896 458.197 462.768 444.572C459.79 438.88 452.691 431.758 447.177 428.929C440.463 425.483 435.817 424.296 428.848 424.243C421.651 424.189 417.298 425.226 410.809 428.544C397.698 435.246 389.778 447.793 389.665 462.042C389.644 464.68 389.381 466.838 389.081 466.838C388.091 466.838 389.077 454.632 390.358 451.008C392.743 444.265 395.098 440.213 399.164 435.864C405.049 429.568 410.622 426.394 419.851 424.081C424.893 422.817 437.43 423.079 440.485 424.511C441.605 425.036 443.795 426.009 445.353 426.674C452.18 429.586 458.962 435.833 463.123 443.044C466.476 448.853 467.884 453.802 468.24 461.025C468.508 466.444 468.366 467.75 466.977 472.652C464.092 482.83 459.192 489.976 451.179 495.688C447.253 498.487 441.323 501.164 439.188 501.1C437.89 501.061 437.892 501.05 439.322 500.438Z" fill="#F5F1EA" stroke="#F5F1EA"/>
<path d="M584.336 468.728C582.837 463.494 582.479 461.753 582.383 459.199C582.328 457.746 582.428 456.319 582.604 456.03C582.78 455.739 582.692 453.932 582.407 452.014C582.122 450.095 581.754 447.609 582.226 446.129C582.842 447.229 583.324 450.216 583.632 454.849C583.892 458.725 584.408 463.096 584.782 464.559C585.157 466.024 585.368 468.116 585.254 469.21L585.045 471.199L584.336 468.728Z" fill="#3E4956" stroke="#3E4956"/>
<path d="M277.974 465.967C278.306 462.012 280.409 448.8 280.807 448.155C281.653 446.787 282.254 448.627 281.944 451.634L281.606 454.921L282.637 452.595C284.105 449.283 284.984 447.902 285.374 448.293C285.561 448.48 284.275 452.925 282.516 458.172C280.756 463.418 279.313 467.384 279.31 466.984C279.299 465.729 278.23 466.195 277.972 467.565C277.837 468.284 277.837 467.565 277.974 465.967Z" fill="#3E4956" stroke="#3E4956"/>
<path d="M348.198 613.925C348.198 609.289 348.287 607.392 348.398 609.71C348.508 612.029 348.508 615.821 348.398 618.14C348.287 620.458 348.198 618.561 348.198 613.925Z" fill="#3E4956" stroke="#3E4956"/>
<path d="M262.979 616.494C261.341 614.07 260.162 611.927 260.355 611.733C260.898 611.191 265.921 616.363 266.811 620.901C266.341 620.901 264.617 618.917 262.979 616.494Z" fill="#444A55" stroke="#444A55"/>
<path d="M513.803 489.238C505.483 486.856 499.595 482.018 495.744 474.396C493.772 470.492 492.869 466.474 492.869 461.606C492.869 453.845 495.136 447.91 500.178 442.466C509.291 432.634 524.791 430.819 536.247 438.244C556.278 451.226 551.129 483.192 528.039 489.201C523.96 490.264 517.437 490.28 513.803 489.238Z" fill="#4E5266" stroke="#4E5266"/>
<path d="M277.498 474.723C277.324 474.55 277.379 473.032 277.62 471.35C277.858 469.667 278.075 467.834 278.098 467.275C278.161 465.76 279.308 466.042 279.279 467.565C279.242 469.527 277.86 475.085 277.498 474.723Z" fill="#1F2834" stroke="#1F2834"/>
<path d="M340.794 333.323C340.583 333.113 340.703 332.59 343.02 330.205C344.3 329.572 346.539 328.308 347.995 327.397C350.702 325.7 357.245 323.016 357.659 323.431C357.786 323.557 355.329 325.178 352.201 327.033C349.072 328.887 345.417 331.148 344.079 332.055C341.426 333.856 341.355 333.883 340.794 333.323Z" fill="#3E4956" stroke="#3E4956"/>
<path d="M281.79 451.433C281.887 448.866 281.727 447.984 281.182 448.093C280.689 448.193 280.549 447.807 280.762 446.93C285.25 428.463 288.2 419.626 293.811 407.83C302.282 390.026 313.614 374.605 328.523 360.59C339.696 350.086 356.079 338.13 357.821 339.205C358.161 339.416 358.44 340.297 358.44 341.163C358.44 344.238 361.339 353.54 364.502 360.61C365.328 362.458 366.004 364.083 366.004 364.222C366.004 364.36 362.846 366.083 358.983 368.049C328.481 383.587 301.463 412.397 288.011 443.729C286.946 446.208 285.76 448.235 285.374 448.235C284.734 448.235 283.772 449.858 282.237 453.531C281.775 454.638 281.684 454.213 281.79 451.433Z" fill="#4E5266" stroke="#4E5266"/>
<path d="M1020.04 498.872C1018.6 498.68 1017.55 498.272 1017.71 497.966C1017.87 497.66 1016.54 497.115 1014.75 496.757C1010.82 495.97 1008.39 494.343 1008.7 492.71C1008.83 492.07 1009.37 487.033 1009.91 481.518C1010.63 474.248 1011.1 471.49 1011.65 471.49C1012.06 471.49 1012.76 471.124 1013.21 470.677C1013.82 470.062 1014.64 469.985 1016.59 470.361C1020.12 471.041 1027.45 471.025 1029.95 470.331C1033.24 469.419 1037.28 466.542 1039.5 463.526C1041.65 460.612 1044.48 452.902 1044.48 449.949C1044.48 449.006 1044.71 448.235 1045 448.235C1045.85 448.235 1046.49 432.692 1045.68 431.715C1045.09 430.995 1045.06 420.824 1045.6 401.144C1045.62 400.344 1045.66 388.573 1045.69 374.983C1045.71 361.393 1045.87 349.685 1046.04 348.967L1046.35 347.658H1062.29H1078.23V374.664C1078.23 392.288 1078.45 402.74 1078.88 404.75C1080.54 412.639 1085.19 418.155 1092.1 420.428C1095.71 421.615 1097.33 421.717 1115.99 421.94L1136.01 422.179L1134.25 419.075C1124.42 401.652 1126.99 375.866 1140.12 360.197C1145.52 353.755 1155.38 347.47 1164.64 344.578C1171.4 342.466 1177.53 341.655 1186.75 341.655C1215.09 341.653 1233.62 354.856 1239.4 379.17C1240.04 381.872 1240.83 387.203 1241.15 391.015C1241.92 400.365 1241.93 447.841 1241.16 447.363C1240.84 447.165 1240.57 447.298 1240.57 447.658C1240.57 448.07 1239.66 448.246 1238.1 448.129C1236.36 447.999 1235.67 448.16 1235.77 448.671C1235.97 449.641 1142.01 449.733 1138.53 448.766C1136.92 448.32 1136.1 448.321 1135.65 448.77C1134.94 449.482 1120.12 449.665 1120.12 448.962C1120.12 448.722 1118.57 448.526 1116.68 448.526C1114.79 448.526 1113.04 448.722 1112.8 448.962C1112.08 449.683 1099.78 449.414 1095.1 448.575C1090.3 447.712 1084.34 445.479 1081.06 443.31C1079.89 442.539 1078.78 442.067 1078.58 442.261C1078.39 442.455 1078.22 444.599 1078.21 447.025C1078.15 462.788 1073.42 476.533 1064.98 485.496C1061.88 488.783 1060.45 489.939 1060.13 489.415C1057.88 488.286 1056.45 494.092 1056.75 492.162C1056 491.698 1054.16 492.288 1049.37 494.522C1047.74 495.284 1046.11 495.907 1045.76 495.907C1045.41 495.907 1044.9 496.298 1044.63 496.775C1043.6 498.611 1028.05 499.938 1020.04 498.872ZM1207.26 405.65C1206.99 388.265 1206.63 385.582 1203.77 379.634C1201.42 374.76 1194.34 369.169 1190.5 369.169C1189.74 369.169 1189.45 368.923 1189.71 368.5C1190.02 368.006 1188.84 367.917 1185.24 368.155C1180.31 368.482 1175.47 369.688 1175.99 370.457C1176.15 370.686 1175.1 371.625 1173.66 372.543C1170.06 374.84 1166.26 379.122 1164.58 382.785C1163.81 384.47 1162.88 387.98 1162.51 390.584C1160.58 404.191 1166.5 415.065 1178.39 419.79C1182.98 421.614 1185.65 421.929 1197.13 422.005L1207.51 422.074L1207.26 405.65Z" fill="#2E3445" stroke="#2E3445"/>
<path d="M787.287 502.838C760.455 500.293 742.471 492.444 731.188 478.356C724.204 469.636 720.445 459.599 719.105 446.085C717.878 433.736 719.923 417.495 724.176 405.805C726.878 398.385 731.867 388.055 732.693 388.175C733.676 388.315 759.926 398.03 760.278 398.382C760.422 398.527 759.504 401.235 758.238 404.399C752.951 417.603 751.115 428.348 752.343 438.905C753.183 446.125 754.203 449.682 756.924 454.884C760.103 460.963 765.488 466.033 772.235 469.301C781.973 474.019 790.908 475.53 809.192 475.547C833.458 475.571 845.567 472.636 853.37 464.842C856.6 461.612 860.181 455.218 860.959 451.287L861.332 449.397H851.688C827.179 449.397 809.919 443.992 798.14 432.625C789.346 424.142 785.676 416.29 784.324 403.084C783.219 392.276 784.99 380.483 789.035 371.715C794.059 360.828 801.021 353.623 811.727 348.234C820.941 343.594 829.856 341.662 841.984 341.677C851.638 341.687 858.477 342.87 866.216 345.863C878.926 350.778 888.537 360.929 892.915 374.066C895.775 382.644 896.151 385.843 896.502 404.487L896.833 422.073H926.661C953.325 422.073 956.528 421.975 956.845 421.153C957.039 420.648 957.151 409.202 957.095 395.719C957.038 382.235 956.82 373.035 956.611 375.273C956.401 377.511 956.251 372.279 956.277 363.646L956.324 347.949L973.345 347.795L990.365 347.641V398.52V449.397H942.941H895.518V450.776C895.518 454.11 892.45 464.009 889.73 469.455C884.42 480.084 875.656 488.626 864.387 494.149C854.959 498.772 843.755 501.455 828.019 502.862C820.341 503.548 794.625 503.533 787.287 502.838ZM862.206 405.649C861.974 391.173 861.795 388.68 860.691 384.625C859.087 378.729 857.182 375.523 853.6 372.693C849.669 369.59 847.295 368.881 840.821 368.88C836.048 368.878 834.841 369.09 831.991 370.424C825.843 373.303 821.477 378.429 819.677 384.874C816.913 394.777 818.481 405.652 823.65 412.422C826.895 416.673 834.297 420.332 841.909 421.45C843.711 421.715 849.074 421.964 853.828 422.002L862.469 422.073L862.206 405.649Z" fill="#2E3445" stroke="#2E3445"/>
<path d="M1135.64 448.78C1136.06 448.359 1136.89 448.341 1138.23 448.727L1140.2 449.293L1137.61 449.346C1135.78 449.383 1135.2 449.217 1135.64 448.78Z" fill="#121D2C" stroke="#121D2C"/>
<path d="M1045.14 401.435C1045.15 398.927 1045.23 398.735 1045.71 400.032C1046.06 400.986 1046.05 402.047 1045.7 402.939C1045.22 404.119 1045.14 403.88 1045.14 401.435Z" fill="#121D2C" stroke="#121D2C"/>
<path d="M1235.74 449.026C1234.89 448.174 1236.14 447.676 1238.28 448.018C1239.98 448.29 1240.57 448.186 1241.48 448.767C1241.06 449.439 1236.37 449.653 1235.74 449.026Z" fill="#1F2834" stroke="#1F2834"/>
<path d="M1045.16 439.916C1045.1 434.302 1045.26 431.431 1045.64 431.666C1046.29 432.062 1046.29 437.46 1045.66 444.165C1045.3 447.946 1045.24 447.38 1045.16 439.916Z" fill="#1F2834" stroke="#1F2834"/>
<path d="M1044.73 496.55C1044.95 496.197 1045.42 495.907 1045.77 495.907C1046.11 495.907 1047.74 495.284 1049.37 494.522C1051 493.761 1053.25 492.804 1054.37 492.395C1055.49 491.987 1057.13 490.994 1058 490.189C1059.64 488.688 1060.92 488.804 1059.65 490.337C1057.89 492.455 1043.58 498.416 1044.73 496.55Z" fill="#1F2834" stroke="#1F2834"/>
<path d="M1011.31 470.328C1011.31 469.04 1011.75 468.896 1013.06 469.754C1013.83 470.264 1013.83 470.391 1013.06 470.901C1011.75 471.759 1011.31 471.615 1011.31 470.328Z" fill="#1F2834" stroke="#1F2834"/>
<path d="M1175.82 370.268C1176.81 369.279 1182.86 368.026 1186.7 368.016C1191.17 368.004 1190.55 368.602 1185.77 368.909C1183.73 369.04 1180.76 369.541 1179.17 370.024C1175.71 371.074 1174.96 371.128 1175.82 370.268Z" fill="#1F2834" stroke="#1F2834"/>
<path d="M956.882 396.202C956.882 382.453 956.958 376.911 957.052 383.888C957.145 390.864 957.145 402.114 957.052 408.887C956.958 415.66 956.882 409.952 956.882 396.202Z" fill="#121D2C" stroke="#121D2C"/>
<path d="M1112.8 448.961C1113.04 448.722 1114.79 448.525 1116.68 448.525C1118.57 448.525 1120.12 448.722 1120.12 448.961C1120.12 449.201 1118.38 449.397 1116.25 449.397C1114.11 449.397 1112.56 449.201 1112.8 448.961Z" fill="#121D2C" stroke="#121D2C"/>
<path d="M1045.18 369.605C1045.11 357.533 1045.26 347.658 1045.5 347.658C1045.89 347.657 1045.87 375.582 1045.46 386.901C1045.37 389.459 1045.25 381.676 1045.18 369.605Z" fill="#121D2C" stroke="#121D2C"/>
<path d="M1179.11 324.351C1176.02 323.458 1171.72 320.184 1169.74 317.228C1167.27 313.531 1166.48 310.439 1166.82 305.677C1167.54 295.561 1175.08 288.658 1185.37 288.698C1198.32 288.748 1206.93 302.292 1201.63 314.265C1199.88 318.218 1195.59 322.425 1191.9 323.804C1188.53 325.064 1182.47 325.325 1179.11 324.351Z" fill="#2E3445" stroke="#2E3445"/>
<path d="M1216.85 713.236C1216.31 712.701 1216.14 707.106 1216.14 690.62C1216.14 672.473 1215.99 668.598 1215.31 668.035C1211.27 668.314 1210.53 671.341 1212.52 669.465C1211.97 670.116 1210.96 670.69 1210.27 670.741C1208.72 670.859 1206.73 672.59 1207.22 673.391C1207.44 673.739 1207.3 673.806 1206.89 673.553C1206.05 673.034 1200.83 675.369 1201.26 676.069C1201.43 676.338 1199.8 677.109 1197.65 677.781C1185.07 681.711 1171.58 680.643 1159.4 674.754C1148.58 669.518 1141.19 662.025 1136.37 651.409C1133.06 644.116 1132.2 639.586 1132.06 628.749C1131.95 620.169 1132.1 618.176 1133.24 613.634C1135.71 603.749 1140.03 596.282 1147.11 589.694C1159.12 578.521 1176.59 573.796 1193.15 577.239C1201.29 578.931 1207.59 582.139 1213.08 587.385L1215.55 589.749V584.151V578.554L1226.17 578.713C1232.01 578.8 1237.25 578.955 1237.81 579.054C1238.77 579.227 1238.83 582.764 1238.82 643.816C1238.81 696.191 1238.66 708.891 1238.03 711.013L1237.25 713.629L1227.4 713.787C1220.24 713.903 1217.36 713.752 1216.85 713.236ZM1196.01 657.547C1207.37 653.631 1213.91 644.194 1214.76 630.497C1215.6 617.026 1209.21 604.542 1199 599.703C1192.04 596.404 1185.13 595.648 1177.77 597.382C1167.88 599.712 1159.82 608.132 1157.64 618.418C1156.54 623.617 1156.55 633.119 1157.67 637.493C1160.44 648.32 1168.16 656.073 1178.55 658.448C1183.26 659.526 1191.51 659.101 1196.01 657.547Z" fill="#2E3445" stroke="#2E3445"/>
<path d="M858.277 678.787C842.672 675.506 833.334 666.139 831.852 652.281C830.214 636.977 839.84 624.594 856.674 620.343C862.399 618.899 869.617 618.205 870.138 619.049C870.4 619.471 874.982 619.575 884.619 619.375C898.996 619.075 900.474 618.953 899.946 618.098C899.781 617.831 899.362 615.839 899.015 613.674C897.781 605.953 893.352 600.251 886.799 597.941C885.407 597.45 881.859 596.781 878.912 596.451C868.887 595.335 857.803 597.989 848.463 603.742C846.12 605.186 844.115 606.367 844.01 606.367C843.406 606.367 834.964 589.318 835.377 588.932C835.651 588.675 837.519 587.411 839.529 586.125C847.625 580.945 858.589 577.631 871.079 576.586C877.746 576.029 880.103 576.077 886.653 576.902C906.924 579.455 917.913 587.739 922.421 603.867C923.636 608.21 923.696 609.667 923.875 638.343C923.978 654.81 923.858 670.246 923.61 672.643L923.157 677.004L913.634 677.164C907.104 677.273 903.856 677.114 903.306 676.657C902.862 676.29 902.5 674.991 902.5 673.769C902.5 672.548 902.239 671.387 901.919 671.19C901.599 670.992 901.337 670.184 901.337 669.396C901.337 668.02 901.18 668.081 897.543 670.865C888.632 677.69 884.306 679.096 871.37 679.379C864.997 679.519 860.867 679.332 858.277 678.787ZM883.41 660.639C888.183 659.224 891.931 657.103 895.328 653.893C899.134 650.297 900.173 647.313 900.173 639.981V634.854H883.973C871.621 634.854 867.117 635.051 865.014 635.683C857.228 638.024 853.995 643.789 856.206 651.387C857.896 657.197 862.525 660.642 870.206 661.805C873.072 662.24 880.104 661.619 883.41 660.639Z" fill="#2E3445" stroke="#2E3445"/>
<path d="M721.277 650.417C721.058 634.983 720.961 605.48 721.061 584.856L721.244 547.358L769.686 547.209L818.127 547.062V557.528V567.997H782.051H745.974V587.083V606.17L773.215 605.899C788.199 605.752 802.735 605.819 805.523 606.052L810.59 606.473L810.43 616.74L810.272 627.005L778.129 626.821L745.986 626.637L745.834 652.401L745.683 678.166L733.678 678.323L721.673 678.48L721.277 650.417Z" fill="#2E3445" stroke="#2E3445"/>
<path d="M956.616 677.889C956.616 677.562 955.962 677.293 955.161 677.293H953.706V671.015C953.706 667.561 953.443 664.472 953.12 664.151C952.734 663.765 952.585 648.942 952.683 620.867L952.833 578.17H964.18H975.527L975.691 585.09L975.856 592.009L977.612 589.624C978.767 588.056 979.667 587.355 980.245 587.577C981.339 587.995 984.603 584.985 984.4 583.743C984.305 583.154 985.734 582.1 988.619 580.639C993.587 578.123 1000.28 576.719 1007.32 576.717C1011.43 576.717 1011.78 576.813 1012.11 578.025C1012.3 578.743 1012.46 583.676 1012.47 588.984L1012.48 598.634L1008.2 598.36C1002.85 598.017 995.225 599.482 991.261 601.616C987.031 603.892 981.888 609.165 980.107 613.051C976.799 620.271 976.803 620.232 976.444 650.26L976.109 678.166L966.362 678.325C959.995 678.428 956.616 678.277 956.616 677.889Z" fill="#2E3445" stroke="#2E3445"/>
<path d="M1032.07 678.069C1031.85 677.855 1031.68 655.22 1031.68 627.769V577.855L1043.75 578.014L1055.83 578.171L1055.98 628.314L1056.12 678.457H1044.29C1037.78 678.457 1032.28 678.282 1032.07 678.069Z" fill="#2E3445" stroke="#2E3445"/>
<path d="M870.206 661.805C862.525 660.641 857.896 657.197 856.206 651.386C853.995 643.788 857.228 638.023 865.014 635.683C867.117 635.05 871.621 634.854 883.973 634.854H900.173V639.98C900.173 647.312 899.134 650.296 895.328 653.892C891.931 657.102 888.183 659.223 883.41 660.638C880.104 661.619 873.072 662.239 870.206 661.805Z" fill="#F9F9F9" stroke="#F9F9F9"/>
<path d="M1178.55 658.448C1168.16 656.074 1160.44 648.321 1157.67 637.494C1156.55 633.119 1156.54 623.618 1157.64 618.419C1159.82 608.132 1167.88 599.713 1177.77 597.383C1185.13 595.649 1192.04 596.405 1199 599.704C1209.21 604.543 1215.6 617.027 1214.76 630.497C1213.91 644.194 1207.37 653.631 1196.01 657.547C1191.51 659.102 1183.26 659.526 1178.55 658.448Z" fill="#F9F9F9" stroke="#F9F9F9"/>
<path d="M1085.21 628.168V577.88H1097.47H1109.73L1109.53 627.151C1109.42 654.251 1109.11 676.88 1108.85 677.439C1108.41 678.358 1107.24 678.457 1096.79 678.457H1085.21V628.168Z" fill="#2E3445" stroke="#2E3445"/>
<path d="M1214.97 691.213C1214.97 675.835 1215.17 668.045 1215.55 668.283C1215.92 668.512 1216.14 676.599 1216.14 690.628C1216.14 708.631 1216.28 712.735 1216.94 713.282C1217.49 713.74 1220.8 713.899 1227.51 713.79L1237.27 713.629L1237.99 711.304L1238.71 708.978L1238.77 711.74L1238.83 714.501H1226.9H1214.97V691.213Z" fill="#1F2834" stroke="#1F2834"/>
<path d="M1131.54 631.294C1131.01 628.638 1131.12 625.391 1131.76 624.39C1132.15 623.787 1132.33 625.002 1132.33 628.314C1132.34 630.952 1132.25 633.11 1132.13 633.11C1132.01 633.11 1131.74 632.293 1131.54 631.294Z" fill="#1F2834" stroke="#1F2834"/>
<path d="M952.93 678.069C952.279 677.418 952.47 663.809 953.124 664.213C953.455 664.418 953.706 667.32 953.706 670.932C953.706 670.932 953.706 677.294 956.616 677.875C956.616 678.519 953.543 678.681 952.93 678.069Z" fill="#121D2C" stroke="#121D2C"/>
<path d="M1201.01 675.832C1201.01 675.668 1202.41 674.895 1204.11 674.112C1205.82 673.331 1207.56 672.289 1207.97 671.795C1208.38 671.302 1208.99 670.899 1209.34 670.899C1209.68 670.899 1210.76 670.179 1211.74 669.301C1213.24 667.956 1213.2 668.053 1211.48 669.927C1208.77 672.885 1201.01 677.262 1201.01 675.832Z" fill="#1F2834" stroke="#1F2834"/>
<path d="M979.891 587.234C979.891 586.589 983.259 583.693 984.008 583.693C984.977 583.693 984.575 584.611 982.913 586.2C981.285 587.761 979.891 588.236 979.891 587.234Z" fill="#232A40" stroke="#232A40"/>
<path d="M870.194 619.137C870.006 618.833 876.213 618.544 884.993 618.449C893.311 618.359 899.932 618.454 899.709 618.659C899.053 619.262 870.556 619.722 870.194 619.137Z" fill="#1F2834" stroke="#1F2834"/>
<path d="M417.21 384.903C393.469 379.894 375.524 358.852 373.79 333.996C373.345 327.607 374.173 321.828 376.541 314.811C382.622 296.786 395.513 284.193 413.545 278.66C418.181 277.237 419.543 277.087 427.975 277.069C436.04 277.05 437.946 277.231 442.231 278.427C460.305 283.473 473.77 296.189 480.254 314.335C483.306 322.878 483.717 335.586 481.247 345.042C479.533 351.607 474.992 360.468 470.442 366.123C457.923 381.682 436.974 389.074 417.21 384.903Z" fill="#CAA166" stroke="#CAA166"/>
</g>
<defs>
<clipPath id="clip0_53_2">
<rect width="1471" height="986" fill="white"/>
</clipPath>
</defs>
</svg>
