<?xml version="1.0" encoding="UTF-8"?>
<svg version="1.1" xmlns="http://www.w3.org/2000/svg"
 width="866" height="906" viewBox="0 0 866 906">
<!-- Blue/Gray layer (outer ring and side figures) -->
<g transform="translate(0,906) scale(0.1,-0.1)" fill="#4F5264" stroke="none">
<path d="M5935 7925 c123 -45 449 -203 582 -280 627 -368 1178 -956 1502 -1604
163 -324 281 -679 355 -1066 49 -261 59 -370 58 -675 -1 -438 -23 -626 -111
-972 -277 -1086 -960 -2002 -1905 -2557 -440 -258 -976 -445 -1491 -521 -172
-25 -599 -44 -790 -36 -862 40 -1753 404 -2440 997 -208 179 -514 518 -622
687 -20 31 -45 68 -55 82 -41 55 -118 173 -118 181 0 26 35 2 77 -51 25 -33
49 -60 53 -60 4 0 56 -43 116 -96 570 -504 1218 -816 1966 -948 203 -36 336
-46 633 -46 300 0 440 10 650 45 839 142 1558 506 2146 1086 372 367 630 738
820 1179 287 665 378 1316 278 2005 -106 740 -427 1417 -925 1953 -232 249
-632 560 -882 686 -136 68 -70 76 103 11z"/>
<path d="M2622 7836 c-88 -52 -105 -67 -107 -98 -1 -17 -39 -54 -136 -132 -165 -135 -520 -488 -618 -616 -530 -688 -796
-1531 -753 -2387 23 -440 116 -801 305 -1183 l92 -185 6 175 c7 202 24 279 94
427 57 120 105 192 188 279 265 280 693 386 1062 263 170 -57 289 -134 428
-277 65 -67 77 -84 68 -99 -5 -10 -55 -66 -109 -125 -255 -274 -381 -518 -437
-843 -17 -101 -38 -543 -33 -707 2 -60 -1 -104 -6 -101 -14 9 -2 -263 13 -281
19 -23 261 -139 419 -200 264 -104 551 -176 837 -212 193 -25 609 -25 785 -1
225 31 549 110 749 181 24 9 47 16 52 16 50 0 -104 -87 -351 -198 -356 -160
-636 -240 -1050 -298 -159 -23 -688 -26 -850 -6 -451 57 -930 211 -1314 423
-814 450 -1417 1260 -1600 2150 -107 522 -65 1121 120 1709 312 990 964 1757
1889 2223 156 78 305 146 320 147 6 0 -23 -20 -63 -44z"/>
<path d="M5869 7640 c738 -444 1258 -1147 1456 -1971 24 -98 26 -118 16 -158 -6 -25 -9 -50 -5 -56 8 -13 11
-250 3 -240 -3 4 -11 27 -18 52 -48 176 -197 502 -320 699 -237 378 -560 713
-916 947 -112 74 -384 224 -481 266 -32 13 -54 29 -54 39 0 8 14 53 31 99 30
83 89 309 89 342 0 9 5 29 10 43 14 37 35 30 189 -62z"/>
<path d="M2879 7587 c14 -88 51 -203 106 -335 l43 -104 -146 -78 c-600 -319 -1071 -805 -1368 -1410 -52 -106
-99 -195 -105 -199 -6 -3 -8 -13 -4 -22 3 -9 3 -13 -1 -9 -4 4 -19 -14 -33
-40 -14 -26 -30 -48 -36 -48 -5 0 -11 26 -13 58 -2 32 -7 55 -11 52 -19 -11
48 262 111 455 205 627 591 1156 1157 1584 130 98 238 166 267 166 18 0 22 -9
33 -70z"/>
<path d="M2552 5699 c210 -43 386 -224 433 -444 18 -88 18 -132 0 -220 -44
-210 -200 -378 -411 -441 -94 -29 -243 -24 -336 10 -138 50 -259 162 -327 303
-74 150 -60 379 32 536 62 106 223 222 350 253 66 16 190 17 259 3z"/>
<path d="M6249 5695 c209 -50 372 -216 416 -422 62 -291 -103 -588 -374 -674 -100 -32 -262 -30
-353 4 -228 84 -368 268 -384 505 -12 174 41 318 160 437 76 75 160 124 256
149 72 19 199 19 279 1z"/>
<path d="M6320 4390 c259 -56 479 -195 616 -386 108 -151 180 -367 191 -569 5 -100 3 -117 -20 -186 -95 -280 -316 -606 -616 -908 -145 -145
-246 -227 -428 -347 -149 -99 -189 -121 -199 -111 -3 3 -10 252 -14 554 -5
301 -14 576 -19 610 -16 86 -56 221 -101 338 -72 183 -180 348 -335 513 l-92
97 22 35 c31 50 128 144 201 196 34 24 104 64 155 89 213 100 415 124 639 75z"/>
</g>
<!-- Gold/Tan layer (center figure and circles) -->
<g transform="translate(0,906) scale(0.1,-0.1)" fill="#C2A472" stroke="none">
<path d="M4397 8860 c423 -35 794 -352 929 -796 26 -84 28 -101 28 -284 0 -151
-3 -210 -16 -261 -23 -89 -86 -233 -145 -332 -60 -100 -199 -248 -298 -316
-266 -184 -608 -244 -915 -160 -99 27 -279 116 -361 178 -145 111 -284 287
-356 452 -78 181 -111 413 -83 586 26 166 117 378 220 514 172 228 466 399
720 419 141 10 155 10 277 0z"/>
<path d="M4513 5863 c48 -17 112 -46 143 -64 76 -46 185 -148 241 -226 213 -298 165 -735 -110 -988 -56 -52 -100 -81 -200 -130 -71
-35 -134 -68 -140 -73 -15 -12 -141 -32 -202 -32 -65 0 -189 27 -260 57 -128
54 -261 158 -352 275 -91 119 -154 309 -133 400 5 24 10 73 10 109 0 137 69
313 167 431 97 116 257 218 407 259 58 16 96 18 206 16 119 -3 145 -7 223 -34z"/>
<path d="M4535 4116 c253 -56 479 -176 666 -353 113 -108 202 -226 273 -363 114 -218
155 -410 136 -625 -5 -55 -9 -304 -10 -552 0 -442 0 -453 -20 -465 -11 -7 -20
-18 -20 -25 0 -16 -12 -17 -26 -3 -7 7 -30 3 -70 -10 -202 -71 -501 -144 -714
-175 -149 -22 -503 -30 -685 -16 -354 29 -762 130 -1070 265 l-80 35 1 583 0
583 26 95 c73 261 192 474 359 640 223 220 518 368 799 399 114 13 348 5 435
-13z"/>
</g>
</svg>
